<svg width="226" height="161" viewBox="0 0 226 161" fill="none" xmlns="http://www.w3.org/2000/svg">
<g clip-path="url(#clip0_22_129)">
<path d="M139.031 87.8966L122.606 105.289C121.439 106.526 121.885 108.547 123.465 109.181L150.228 119.92C150.228 119.92 147.006 94.8057 146.561 95.0471C146.126 95.2839 139.031 87.8966 139.031 87.8966Z" fill="#A9D1DB"/>
<path d="M205.557 118.46C193.562 108.47 154.251 76.5275 139.365 64.4488C137.4 62.8512 134.518 64.5799 134.998 67.0605L139.037 87.8987L122.664 105.236C122.007 105.935 121.851 106.872 122.111 107.686C122.325 108.347 139.056 100.401 139.056 100.401C139.056 100.401 135.389 126.604 133.681 139.019C133.258 142.077 136.175 144.531 139.124 143.602C154.177 138.842 191.821 126.944 204.685 122.875C206.62 122.258 207.111 119.754 205.557 118.46Z" fill="white"/>
<path d="M122.104 107.685C122.318 108.345 139.05 100.399 139.05 100.399L184.65 115.397C184.959 115.495 185.153 115.074 184.871 114.907L139.031 87.8968L122.657 105.234C122.003 105.927 121.844 106.87 122.104 107.685Z" fill="#D1E2EA"/>
<path d="M24.9223 22.6656C36.4991 43.7021 63.6896 65.2445 89.5976 58.4579C100.051 55.715 108.83 48.3341 111.571 37.3827C115.036 23.5467 101.739 17.6402 91.2344 26.5777C73.9818 41.2608 72.5344 72.8806 82.1994 91.0637C87.7825 101.574 98.1517 108.648 110.45 106.835" stroke="white" stroke-width="2" stroke-miterlimit="10" stroke-dasharray="5 5"/>
</g>
<defs>
<clipPath id="clip0_22_129">
<rect width="202.365" height="107.622" fill="white" transform="translate(31.0229 0.291504) rotate(16.42)"/>
</clipPath>
</defs>
</svg>
