<svg viewBox="-5 0 1921 250.049" xmlns="http://www.w3.org/2000/svg">
  <path
    d="M1916 207.774L1880.01 197.398L1838.82 192.716L1795.53 197.778L1772.47 207.774L1746.89 206.256L1675.61 207.774L1592.96 206.256L1507.06 200.182L1393.9 194.235L1351.02 198.284L1300.13 228.147L1245.73 230.045L1208.06 222.073L1174.46 213.721L1122.73 214.101L1025.87 192.716L948.833 187.149L900.616 193.096L835.669 180.316L770.583 178.671L652.076 193.476L578.273 185.504L503.06 181.455L374.716 199.802L273.502 217.391L163.296 202.966L86.8144 196.639L40.2914 202.966L-4.27824 201.068L-4.27825 0.000167797L1916 0V207.774Z"
    fill="#FBFBF1" transform="matrix(1, 0, 0, 1, 7.105427357601002e-15, 0)" />
  <path
    d="M-5 191.957C2.73584 190.189 14.2635 193.725 20.021 195.366C25.7912 193.598 31.5487 188.421 39.2846 188.421C48.8339 188.421 64.3056 191.83 70.0631 183.243C77.7989 179.833 91.1527 179.833 98.8759 179.833C112.369 179.833 127.689 193.598 141.182 186.779C150.744 186.779 160.446 183.369 169.995 185.011C185.314 183.243 202.612 191.957 214.14 183.243C217.932 185.011 219.897 183.243 221.863 183.243C225.655 185.011 233.391 186.653 237.182 188.421C258.272 190.189 277.523 203.954 300.578 202.186C302.544 197.008 308.301 197.008 310.14 193.598C310.14 193.598 312.106 193.598 312.106 191.83C319.829 188.421 337.127 181.475 344.711 190.062C356.238 193.472 367.766 191.83 379.294 191.83C381.259 188.421 396.579 190.062 398.544 186.652C412.038 183.243 425.392 183.243 438.885 181.475C442.677 181.475 444.642 183.243 448.447 179.707C454.204 179.707 461.94 179.707 467.698 179.707C473.468 174.529 483.017 171.119 490.753 171.119C498.476 172.887 504.246 167.709 506.073 162.532C519.566 157.354 534.885 164.3 548.379 164.3C556.115 159.122 565.664 166.068 573.4 169.477C577.192 171.245 584.927 169.477 584.927 172.887C588.719 172.887 592.651 174.655 596.455 174.655C598.421 174.655 602.213 174.655 606.005 176.423C607.97 176.423 611.775 176.423 613.74 178.191C621.464 178.191 629.06 178.191 636.783 181.601C638.761 181.601 642.553 179.833 644.519 179.833C650.283 172.887 656.045 172.887 665.604 172.887C673.334 172.887 680.924 169.477 686.687 165.941H694.418C696.386 158.996 700.18 162.532 705.943 162.532C707.911 162.532 711.707 165.941 713.673 164.3C723.232 171.245 736.725 167.709 746.283 171.245C750.078 173.013 754.014 176.423 757.808 173.013C761.604 173.013 765.539 171.245 769.335 171.245C773.129 167.836 782.828 167.836 788.591 167.836C794.353 164.426 802.084 167.836 809.674 166.068C817.405 166.068 826.963 164.3 834.694 166.068C838.488 167.836 848.187 164.3 850.015 167.836C863.508 169.604 873.066 181.601 888.387 181.601C890.354 181.601 896.117 179.833 897.944 181.601C909.47 181.601 917.201 179.833 928.726 181.601C930.694 176.423 926.758 166.068 934.489 164.3C934.489 162.532 936.457 162.532 938.284 162.532C934.489 164.3 946.015 157.354 947.842 157.354C955.573 157.354 961.336 157.354 965.13 164.3C970.893 166.068 976.657 166.068 984.388 166.068C986.355 166.068 988.182 166.068 990.15 167.836C997.881 167.836 1003.64 174.781 1009.41 174.781C1009.41 174.781 1009.41 174.781 1011.37 174.781C1013.34 183.369 1024.87 179.959 1030.63 183.369C1034.43 186.779 1040.19 186.779 1045.95 186.779C1051.71 186.779 1051.71 190.188 1059.44 188.547C1061.41 188.547 1065.21 190.315 1067.18 191.956C1072.94 191.956 1076.73 193.725 1084.46 193.725C1090.23 191.956 1099.79 186.779 1105.55 191.956C1105.55 191.956 1105.55 191.956 1107.52 191.956C1107.52 202.312 1113.28 195.366 1115.25 197.134C1121.01 197.134 1124.8 191.956 1126.77 186.779C1130.57 183.369 1142.09 186.779 1142.09 190.188C1153.62 193.598 1167.11 193.598 1170.91 205.722C1178.64 202.312 1188.2 203.954 1195.93 203.954C1197.89 205.722 1205.48 212.541 1205.48 214.309C1207.45 214.309 1209.28 212.541 1209.28 216.077C1215.04 216.077 1220.8 214.309 1226.57 217.845C1226.57 212.668 1241.89 219.613 1240.06 214.436C1247.79 209.258 1257.35 214.436 1263.11 219.613C1272.67 217.845 1276.61 207.49 1288.13 207.49C1301.62 205.722 1314.98 198.902 1330.44 197.134C1340 198.902 1341.97 183.369 1353.49 186.779L1359.25 188.547C1368.81 190.315 1365.02 181.601 1365.02 176.423C1365.02 169.477 1372.75 164.3 1378.51 162.658C1382.3 159.248 1390.04 159.248 1395.8 159.248C1403.53 161.016 1409.29 174.781 1418.85 169.604C1426.58 164.426 1432.34 154.07 1443.87 155.838C1449.63 161.016 1459.19 164.426 1464.95 169.604C1472.68 174.781 1480.27 174.781 1488 176.549C1491.8 174.781 1495.73 176.549 1497.56 178.317C1512.88 178.317 1526.38 183.495 1537.9 188.673C1549.43 186.905 1558.98 186.905 1570.51 186.905C1570.51 186.905 1574.31 186.905 1574.31 185.137C1582.04 190.315 1587.8 186.905 1597.36 188.547C1601.15 188.547 1608.88 188.547 1610.85 185.137C1618.58 185.137 1624.34 183.369 1631.93 183.369C1637.7 183.369 1641.49 181.601 1647.25 185.137C1656.81 185.137 1668.34 185.137 1676.07 186.905C1683.8 193.851 1693.36 205.848 1706.85 199.029C1710.65 199.029 1718.38 197.26 1722.17 199.029C1725.97 193.851 1739.46 197.26 1743.26 193.851C1749.02 195.619 1756.75 192.083 1758.58 195.619C1764.34 195.619 1770.1 195.619 1773.9 199.029H1775.86C1779.66 190.441 1785.42 193.851 1787.39 190.441C1789.36 190.441 1796.95 188.673 1796.95 187.031C1804.68 188.799 1806.51 187.031 1816.2 187.031C1820 183.621 1827.73 180.085 1833.49 176.676C1841.22 174.908 1848.81 178.444 1854.58 178.444C1864.13 180.212 1866.1 181.853 1873.83 183.621C1877.63 187.031 1889.15 193.977 1894.92 188.799C1902.65 187.031 1908.41 185.389 1916 185.389V229.843C1910.24 228.075 1906.44 224.665 1898.71 222.897C1894.92 219.487 1890.98 217.719 1883.39 215.951C1873.83 215.951 1862.31 212.541 1850.78 210.773C1845.02 205.595 1843.05 205.595 1839.26 202.186C1833.49 202.186 1825.76 202.186 1820 202.186C1814.24 203.954 1808.47 205.595 1802.71 207.363C1804.68 212.541 1802.71 212.541 1798.92 212.541C1796.95 215.951 1793.15 214.309 1793.15 217.719C1791.19 217.719 1789.36 215.951 1789.36 217.719C1785.56 217.719 1779.8 217.719 1775.86 217.719C1775.86 215.951 1762.37 215.951 1762.37 214.309C1752.81 212.541 1741.29 217.719 1735.52 212.541C1725.97 210.773 1714.44 214.309 1704.74 210.773C1673.96 209.005 1656.67 221.129 1628 219.361C1608.74 217.593 1595.39 222.771 1579.93 229.716C1574.16 226.307 1554.91 222.771 1554.91 214.183C1554.91 214.183 1552.94 214.183 1552.94 212.415C1545.21 212.415 1539.45 212.415 1531.86 215.825C1514.57 210.647 1512.6 215.825 1503.04 224.412C1497.28 222.644 1489.55 227.822 1483.79 227.822C1472.26 226.054 1462.7 229.59 1453 233C1449.21 233 1449.21 229.59 1447.24 231.232C1445.27 231.232 1445.27 231.232 1445.27 229.464C1443.31 229.464 1441.48 229.464 1439.51 227.696C1435.72 227.696 1429.95 227.696 1426.02 227.696C1416.46 227.696 1408.73 225.928 1401 219.108C1389.47 213.93 1385.68 215.698 1374.15 212.162C1366.42 210.394 1356.86 200.039 1351.1 210.394C1351.1 210.394 1351.1 210.394 1351.1 212.162C1347.31 212.162 1349.13 215.572 1345.34 217.34C1343.37 217.34 1337.61 222.518 1335.78 224.286C1331.98 226.054 1331.98 231.232 1328.05 232.873C1318.49 231.105 1306.97 225.928 1299.24 232.874C1291.5 238.051 1283.91 238.051 1276.18 243.229C1270.42 243.229 1268.45 246.639 1260.86 246.639C1257.07 246.639 1253.13 248.407 1247.37 246.639C1247.37 248.407 1247.37 248.407 1247.37 250.049C1243.57 244.871 1243.57 246.639 1243.57 248.281C1241.61 248.281 1235.84 246.513 1234.02 246.513C1234.02 246.513 1232.05 246.513 1232.05 244.745C1224.32 241.335 1203.23 237.799 1201.27 232.621C1195.5 232.621 1191.71 229.211 1185.95 229.211C1180.18 227.443 1172.45 230.979 1168.66 227.443C1162.89 229.211 1155.16 224.033 1149.4 229.211C1143.64 230.979 1130.15 229.211 1126.35 232.621C1124.38 232.621 1118.62 234.389 1118.62 236.031C1116.65 236.031 1112.86 234.263 1112.86 232.621C1112.86 232.621 1110.89 232.621 1110.89 230.853C1110.89 232.621 1108.92 232.621 1108.92 230.853C1106.95 227.443 1097.4 227.443 1095.43 223.907C1085.87 220.497 1074.34 223.907 1066.61 216.961C1070.41 210.016 1057.06 211.784 1051.29 211.784C1045.53 201.428 1030.21 210.016 1026.27 203.196C1026.27 203.196 1024.31 203.196 1024.31 201.428C1012.78 194.482 1003.22 206.606 991.696 204.838C985.934 206.606 980.171 208.248 972.44 210.016C974.407 215.193 972.44 213.425 970.472 213.425C966.676 215.193 960.913 216.835 955.151 216.835C951.355 206.48 934.068 209.889 922.541 208.248C912.984 206.48 905.254 199.66 893.727 197.892C874.471 197.892 855.355 196.124 836.099 196.124C826.541 192.714 822.606 184 813.047 182.359C811.08 180.591 803.49 187.536 803.49 184.127C797.727 182.359 791.964 185.895 788.17 185.895C784.374 185.895 776.643 192.841 774.675 189.304C759.354 191.073 736.304 184.127 724.778 194.482C720.983 196.25 720.983 197.892 717.047 201.428C707.49 199.66 703.553 211.784 693.995 213.552C682.47 218.729 667.149 211.784 655.624 213.552C642.135 213.552 626.815 216.961 617.253 223.907H615.287C609.517 216.961 597.99 218.729 592.232 211.784C584.496 203.196 569.177 199.66 555.683 201.428C542.19 194.482 528.836 184.127 513.377 192.841C511.412 198.018 499.884 196.25 496.092 196.25C484.564 196.25 475.002 196.25 463.487 196.25C457.717 199.66 446.19 198.018 438.466 198.018C434.662 198.018 434.662 198.018 430.731 198.018C419.203 198.018 405.71 196.25 394.182 199.786C388.424 203.196 384.633 204.964 378.862 208.374C373.105 216.961 369.313 211.784 363.543 216.961C355.82 213.552 344.292 215.193 336.696 215.193C330.938 215.193 325.168 211.784 321.376 215.193C315.619 228.959 294.529 223.781 284.84 234.136C282.862 234.136 281.036 235.904 281.036 235.904C275.278 241.082 267.542 244.492 257.993 244.492C252.223 242.724 248.431 247.902 244.5 247.902C240.695 244.492 240.695 242.724 232.972 240.956C231.006 239.188 229.168 237.546 225.236 235.778C223.271 235.778 219.479 234.01 219.479 235.778C200.215 232.368 181.104 227.191 161.841 220.245C156.083 220.245 150.326 218.477 144.555 218.477C140.764 218.477 138.798 213.299 135.006 215.067C119.674 215.067 111.951 201.302 96.6312 208.121C83.1379 208.121 77.3678 215.067 64.0139 220.245C64.0139 223.655 50.5206 222.013 48.6945 222.013C46.7288 209.889 42.9369 216.835 39.1451 211.657C29.5831 209.889 19.8816 209.889 10.3323 209.889C4.56212 208.121 2.59634 206.48 -5 208.121V191.957Z"
    fill="#396BCE" transform="matrix(1, 0, 0, 1, 7.105427357601002e-15, 0)" />
</svg>