<svg width="1921" height="263" viewBox="0 0 1921 263" fill="none" xmlns="http://www.w3.org/2000/svg">
<path d="M-4.01163 44.4331L32.0647 55.3206L73.3551 60.2332L116.759 54.9222L139.87 44.4331L165.518 46.0264L236.966 44.4331L319.829 46.0264L405.933 52.3995L519.377 58.6399L562.357 54.3911L613.373 23.0565L667.909 21.0649L705.676 29.4297L739.358 38.1927L791.217 37.7944L888.313 60.2332L965.539 66.0752L1013.87 59.8349L1078.98 73.245L1144.23 74.9711L1263.03 59.4366L1337.01 67.8013L1412.41 72.0501L1541.07 52.7979L1642.54 34.3423L1753.01 49.4785L1829.68 56.1172L1876.32 49.4785L1921 51.4701V262.448H-4.01163V44.4331Z" fill="#FBFBF1"/>
<path d="M1921 61.1629C1913.24 63.0217 1901.69 59.304 1895.91 57.578C1890.13 59.4368 1884.36 64.8805 1876.6 64.8805C1867.03 64.8805 1851.51 61.2956 1845.74 70.3243C1837.99 73.9092 1824.6 73.9092 1816.85 73.9092C1803.33 73.9092 1787.97 59.4368 1774.44 66.6066C1764.85 66.6066 1755.12 70.1915 1745.55 68.4654C1730.19 70.3243 1712.85 61.1629 1701.29 70.3243C1697.49 68.4654 1695.52 70.3243 1693.55 70.3243C1689.74 68.4654 1681.99 66.7394 1678.19 64.8805C1657.04 63.0217 1637.74 48.5494 1614.63 50.4082C1612.66 55.8519 1606.88 55.8519 1605.04 59.4368C1605.04 59.4368 1603.07 59.4368 1603.07 61.2957C1595.33 64.8805 1577.98 72.1831 1570.38 63.1545C1558.82 59.5696 1547.26 61.2957 1535.71 61.2957C1533.74 64.8805 1518.38 63.1545 1516.4 66.7394C1502.88 70.3243 1489.49 70.3243 1475.96 72.1831C1472.16 72.1831 1470.19 70.3243 1466.37 74.0419C1460.6 74.0419 1452.84 74.0419 1447.07 74.0419C1441.29 79.4857 1431.71 83.0706 1423.96 83.0706C1416.21 81.2117 1410.43 86.6555 1408.6 92.0992C1395.07 97.5429 1379.71 90.2403 1366.18 90.2403C1358.42 95.6841 1348.85 88.3815 1341.09 84.7966C1337.29 82.9378 1329.54 84.7966 1329.54 81.2117C1325.73 81.2117 1321.79 79.3529 1317.98 79.3529C1316.01 79.3529 1312.21 79.3529 1308.4 77.4941C1306.43 77.4941 1302.62 77.4941 1300.65 75.6352C1292.91 75.6352 1285.29 75.6352 1277.55 72.0503C1275.56 72.0503 1271.76 73.9092 1269.79 73.9092C1264.01 81.2117 1258.23 81.2117 1248.65 81.2117C1240.9 81.2117 1233.29 84.7966 1227.51 88.5143H1219.76C1217.79 95.8168 1213.98 92.0992 1208.21 92.0992C1206.23 92.0992 1202.43 88.5143 1200.46 90.2403C1190.87 82.9378 1177.34 86.6554 1167.76 82.9378C1163.96 81.0789 1160.01 77.4941 1156.21 81.079C1152.4 81.079 1148.46 82.9378 1144.65 82.9378C1140.85 86.5227 1131.12 86.5227 1125.34 86.5227C1119.57 90.1076 1111.82 86.5227 1104.21 88.3815C1096.45 88.3815 1086.87 90.2403 1079.12 88.3815C1075.32 86.5227 1065.59 90.2403 1063.76 86.5227C1050.23 84.6638 1040.65 72.0503 1025.29 72.0503C1023.32 72.0503 1017.54 73.9092 1015.71 72.0503C1004.15 72.0503 996.398 73.9092 984.843 72.0503C982.87 77.4941 986.817 88.3815 979.066 90.2403C979.066 92.0992 977.092 92.0992 975.26 92.0992C979.066 90.2404 967.509 97.5429 965.677 97.5429C957.926 97.5429 952.149 97.5429 948.344 90.2403C942.567 88.3815 936.788 88.3815 929.037 88.3815C927.065 88.3815 925.233 88.3815 923.26 86.5227C915.509 86.5227 909.731 79.2201 903.954 79.2201C903.954 79.2201 903.954 79.2201 901.98 79.2201C900.008 70.1915 888.452 73.7764 882.674 70.1915C878.869 66.6066 873.091 66.6066 867.313 66.6066C861.536 66.6066 861.536 63.0217 853.785 64.7478C851.812 64.7478 848.008 62.8889 846.034 61.1629C840.257 61.1629 836.451 59.304 828.7 59.304C822.923 61.1629 813.34 66.6066 807.562 61.1629C807.562 61.1629 807.562 61.1629 805.589 61.1629C805.589 50.2754 799.811 57.578 797.838 55.7192C792.06 55.7192 788.256 61.1629 786.283 66.6066C782.477 70.1915 770.922 66.6066 770.922 63.0217C759.367 59.4368 745.838 59.4368 742.033 46.6905C734.282 50.2754 724.699 48.5494 716.948 48.5494C714.976 46.6905 707.366 39.5207 707.366 37.6619C705.393 37.6619 703.561 39.5207 703.561 35.8031C697.783 35.8031 692.005 37.6619 686.227 33.9442C686.227 39.388 670.867 32.0854 672.698 37.5291C664.947 42.9729 655.366 37.5291 649.587 32.0854C640.005 33.9442 636.058 44.8317 624.503 44.8317C610.975 46.6905 597.587 53.8603 582.086 55.7192C572.502 53.8603 570.529 70.1915 558.974 66.6066L553.196 64.7478C543.613 62.8889 547.418 72.0503 547.418 77.4941C547.418 84.7966 539.668 90.2403 533.889 91.9664C530.085 95.5513 522.334 95.5513 516.556 95.5513C508.806 93.6925 503.028 79.2201 493.445 84.6638C485.694 90.1076 479.916 100.995 468.36 99.1362C462.582 93.6925 452.999 90.1076 447.222 84.6638C439.471 79.2201 431.861 79.2201 424.11 77.3613C420.306 79.2201 416.359 77.3613 414.527 75.5024C399.168 75.5024 385.638 70.0587 374.083 64.615C362.528 66.4738 352.945 66.4738 341.388 66.4738C341.388 66.4738 337.584 66.4738 337.584 68.3327C329.833 62.8889 324.056 66.4738 314.473 64.7478C310.667 64.7478 302.916 64.7478 300.944 68.3327C293.193 68.3327 287.416 70.1915 279.806 70.1915C274.027 70.1915 270.223 72.0503 264.445 68.3327C254.862 68.3327 243.306 68.3327 235.556 66.4738C227.805 59.1713 218.222 46.5578 204.694 53.7275C200.888 53.7275 193.137 55.5864 189.333 53.7275C185.528 59.1713 171.999 55.5864 168.195 59.1713C162.416 57.3124 154.666 61.0301 152.834 57.3124C147.055 57.3124 141.278 57.3124 137.473 53.7275H135.5C131.696 62.7562 125.917 59.1713 123.945 62.7562C121.972 62.7562 114.362 64.615 114.362 66.3411C106.611 64.4822 104.779 66.3411 95.0553 66.3411C91.2504 69.9259 83.4996 73.6436 77.7218 77.2285C69.9711 79.0873 62.3612 75.3697 56.5834 75.3697C47.0005 73.5108 45.0277 71.7848 37.2769 69.9259C33.4719 66.341 21.9163 59.0385 16.1385 64.4822C8.38771 66.3411 2.60985 68.0671 -5 68.0671V21.3307C0.777847 23.1896 4.58276 26.7745 12.3335 28.6333C16.1385 32.2182 20.0844 34.077 27.6941 35.9358C37.2769 35.9358 48.8326 39.5207 60.3882 41.3796C66.1661 46.8233 68.139 46.8233 71.944 50.4082C77.7218 50.4082 85.4726 50.4082 91.2504 50.4082C97.0282 48.5494 102.806 46.8233 108.584 44.9645C106.611 39.5207 108.584 39.5207 112.389 39.5207C114.362 35.9358 118.167 37.6619 118.167 34.077C120.14 34.077 121.972 35.9359 121.972 34.077C125.776 34.077 131.555 34.077 135.5 34.077C135.5 35.9359 149.029 35.9358 149.029 37.6619C158.612 39.5207 170.167 34.077 175.946 39.5207C185.527 41.3796 197.084 37.6619 206.807 41.3796C237.669 43.2384 255.003 30.4921 283.751 32.351C303.057 34.2098 316.446 28.7661 331.946 21.4635C337.725 25.0484 357.031 28.7661 357.031 37.7947C357.031 37.7947 359.005 37.7947 359.005 39.6535C366.755 39.6535 372.533 39.6535 380.143 36.0686C397.475 41.5124 399.449 36.0686 409.032 27.04C414.809 28.8988 422.56 23.4551 428.338 23.4551C439.894 25.3139 449.476 21.5963 459.2 18.0114C463.006 18.0114 463.006 21.5963 464.978 19.8702C466.951 19.8702 466.951 19.8702 466.951 21.729C468.925 21.729 470.755 21.729 472.729 23.5879C476.534 23.5879 482.312 23.5879 486.257 23.5879C495.84 23.5879 503.591 25.4467 511.342 32.6165C522.897 38.0602 526.703 36.2014 538.258 39.9191C546.009 41.7779 555.592 52.6653 561.37 41.7779C561.37 41.7779 561.37 41.7779 561.37 39.9191C565.175 39.9191 563.343 36.3342 567.147 34.4753C569.12 34.4753 574.898 29.0316 576.73 27.1728C580.536 25.3139 580.536 19.8702 584.481 18.1442C594.064 20.003 605.619 25.4467 613.37 18.1442C621.121 12.7004 628.731 12.7004 636.482 7.2567C642.259 7.2567 644.233 3.67181 651.842 3.67181C655.647 3.67181 659.593 1.81297 665.371 3.67181C665.371 1.81297 665.371 1.81297 665.371 0.0869141C669.176 5.53064 669.176 3.67181 669.176 1.94575C671.148 1.94575 676.926 3.80458 678.758 3.80458C678.758 3.80458 680.731 3.80458 680.731 5.66341C688.482 9.24831 709.62 12.966 711.594 18.4097C717.371 18.4097 721.176 21.9946 726.954 21.9946C732.732 23.8534 740.483 20.1358 744.287 23.8534C750.066 21.9946 757.816 27.4383 763.594 21.9946C769.372 20.1358 782.901 21.9946 786.705 18.4097C788.678 18.4097 794.456 16.5509 794.456 14.8248C796.429 14.8248 800.234 16.6836 800.234 18.4097C800.234 18.4097 802.206 18.4097 802.206 20.2685C802.206 18.4097 804.18 18.4097 804.18 20.2685C806.153 23.8534 815.735 23.8534 817.708 27.5711C827.291 31.156 838.846 27.5711 846.597 34.8737C842.793 42.1762 856.18 40.3174 861.958 40.3174C867.736 51.2048 883.096 42.1762 887.043 49.346C887.043 49.346 889.015 49.346 889.015 51.2048C900.571 58.5074 910.155 45.7611 921.71 47.6199C927.487 45.7611 933.265 44.0351 941.016 42.1762C939.044 36.7325 941.016 38.5913 942.989 38.5913C946.794 36.7325 952.572 35.0064 958.35 35.0064C962.155 45.8939 979.488 42.309 991.044 44.035C1000.63 45.8939 1008.38 53.0637 1019.93 54.9225C1039.24 54.9225 1058.41 56.7813 1077.71 56.7813C1087.29 60.3662 1091.24 69.5276 1100.82 71.2537C1102.8 73.1125 1110.41 65.81 1110.41 69.3949C1116.18 71.2537 1121.96 67.536 1125.77 67.536C1129.57 67.536 1137.32 60.2335 1139.3 63.9511C1154.66 62.0923 1177.77 69.3949 1189.32 58.5074C1193.13 56.6486 1193.13 54.9225 1197.07 51.2048C1206.66 53.0637 1210.6 40.3174 1220.19 38.4586C1231.74 33.0148 1247.1 40.3174 1258.66 38.4586C1272.18 38.4586 1287.54 34.8737 1297.13 27.5711H1299.1C1304.88 34.8737 1316.44 33.0148 1322.21 40.3174C1329.97 49.346 1345.33 53.0637 1358.86 51.2048C1372.39 58.5074 1385.77 69.3949 1401.27 60.2335C1403.24 54.7897 1414.8 56.6486 1418.6 56.6486C1430.16 56.6486 1439.75 56.6486 1451.29 56.6486C1457.08 53.0637 1468.64 54.7897 1476.38 54.7897C1480.19 54.7897 1480.19 54.7897 1484.13 54.7897C1495.69 54.7897 1509.22 56.6486 1520.78 52.9309C1526.55 49.346 1530.35 47.4872 1536.14 43.9023C1541.91 34.8737 1545.71 40.3174 1551.5 34.8737C1559.24 38.4586 1570.8 36.7325 1578.41 36.7325C1584.19 36.7325 1589.97 40.3174 1593.77 36.7325C1599.55 22.2601 1620.69 27.7039 1630.41 16.8164C1632.39 16.8164 1634.22 14.9576 1634.22 14.9576C1639.99 9.51386 1647.75 5.92896 1657.32 5.92896C1663.11 7.7878 1666.91 2.34407 1670.85 2.34407C1674.67 5.92896 1674.67 7.7878 1682.41 9.64663C1684.38 11.5055 1686.22 13.2315 1690.16 15.0904C1692.14 15.0904 1695.94 16.9492 1695.94 15.0904C1715.25 18.6753 1734.41 24.119 1753.73 31.4215C1759.5 31.4215 1765.27 33.2804 1771.06 33.2804C1774.86 33.2804 1776.83 38.7241 1780.63 36.8653C1796 36.8653 1803.74 51.3376 1819.1 44.1678C1832.63 44.1678 1838.42 36.8653 1851.81 31.4215C1851.81 27.8366 1865.33 29.5627 1867.17 29.5627C1869.14 42.309 1872.94 35.0064 1876.74 40.4502C1886.33 42.309 1896.05 42.309 1905.63 42.309C1911.41 44.1678 1913.38 45.8939 1921 44.1678V61.1629Z" fill="#396BCE"/>
</svg>
